Coordinates
version=1
nRows=8
nColumns=36
inDegrees=yes

Units are S.I. units (second, meters, Newtons, ...)
If the header above contains a line with 'inDegrees', this indicates whether rotational values are in degrees (yes) or radians (no).

endheader
time	pelvis_tilt	pelvis_list	pelvis_rotation	pelvis_tx	pelvis_ty	pelvis_tz	hip_flexion_r	hip_adduction_r	hip_rotation_r	knee_angle_r	knee_angle_r_beta	ankle_angle_r	subtalar_angle_r	mtp_angle_r	hip_flexion_l	hip_adduction_l	hip_rotation_l	knee_angle_l	knee_angle_l_beta	ankle_angle_l	subtalar_angle_l	mtp_angle_l	lumbar_extension	lumbar_bending	lumbar_rotation	arm_flex_r	arm_add_r	arm_rot_r	elbow_flex_r	pro_sup_r	arm_flex_l	arm_add_l	arm_rot_l	elbow_flex_l	pro_sup_l
      2.04583330	    -10.89683265	     -0.47960945	      2.10418021	      0.10555067	      0.63576499	     -0.04112155	     79.82015377	     -7.94272268	      3.51010176	     96.18835456	      1.67880349	     23.26252832	    -27.63104700	     -7.49999987	     78.51050590	     -5.26279222	      7.22342674	     99.20978652	      1.73153742	     30.11947339	     -9.49738672	     -7.49999987	    -40.51076649	      1.92636209	     -1.20945372	     49.20258708	    -18.74994391	     17.25103772	    106.33802690	     97.63070667	     43.77945528	    -16.54530087	      3.19001087	    121.24022919	     77.32797369
      2.05000000	    -11.29230637	     -0.50447322	      1.86182957	      0.09705927	      0.62800899	     -0.03054343	     81.06585719	     -7.10553113	      3.57503979	     96.98604013	      1.69272573	     23.33970565	    -28.28587621	     -7.49999987	     79.47870280	     -5.60062594	      7.44242244	     99.75928260	      1.74112794	     30.58046310	     -9.37450768	     -7.49999987	    -41.13364827	      1.40500868	     -1.06499126	     50.02662399	    -19.24904265	     17.92388290	    106.94631738	     96.90375086	     45.59372176	    -16.54164000	      3.69150556	    121.59330437	     77.14435261
      2.05416670	    -11.61279174	     -0.56699928	      1.83023174	      0.10250027	      0.62736487	     -0.03573948	     81.78113853	     -6.91539748	      3.73349189	     97.54825481	      1.70253823	     23.31940328	    -28.70135211	     -7.49999987	     80.05320013	     -5.52075256	      7.63585362	    100.36449564	      1.75169090	     30.39270725	     -9.51074716	     -7.49999987	    -41.72846065	      1.22635110	     -1.16775691	     50.65124994	    -19.29452065	     17.89485721	    106.98673065	     97.04370855	     46.66694334	    -16.36261314	      3.72443547	    121.43479553	     77.26325543
      2.05833330	    -11.99295568	     -0.40783229	      1.83785184	      0.11107137	      0.62121363	     -0.03626599	     82.41253984	     -6.64288192	      4.23756541	     98.26697107	      1.71508219	     23.56079932	    -29.10174956	     -7.49999987	     80.56284931	     -5.61817550	      7.47295197	    100.96098376	      1.76210158	     30.79923666	     -9.56049947	     -7.49999987	    -42.07218722	      0.63709558	     -0.47240485	     50.18962009	    -20.27442701	     17.20438748	    108.26725344	     99.28933530	     47.85435515	    -15.41746845	      5.24617840	    120.74277162	     79.24647428
      2.06250000	    -12.34452845	     -0.27536796	      2.26703345	      0.11505972	      0.61748631	     -0.03173832	     82.93649192	     -6.69635214	      4.44187760	     99.10933096	      1.72978414	     23.80557201	    -29.55541579	     -7.49999987	     80.99593143	     -5.50094221	      7.57891138	    101.50727950	      1.77163624	     31.05895789	     -9.21113534	     -7.49999987	    -42.32464894	      0.37491807	     -0.84365040	     50.30253923	    -20.16408645	     17.52811181	    108.40667860	     99.40743769	     48.08574489	    -15.17452195	      5.49926621	    120.81083608	     79.34654866
      2.06666670	    -12.97201425	     -0.14339902	      2.31985940	      0.11798841	      0.61369403	     -0.03588765	     83.66071305	     -6.68161444	      4.80667747	     99.69824876	      1.74006270	     24.35685472	    -29.56921868	     -7.49999987	     81.79234876	     -5.65115342	      7.25807100	    102.22764617	      1.78420901	     31.42283132	     -8.62529942	     -7.49999987	    -42.15414569	      0.03433685	     -0.97459401	     50.17061629	    -20.29205997	     18.21115100	    108.78891492	     99.72772053	     47.77128840	    -15.12500242	      6.09519374	    121.07087784	     79.61044481
      2.07083330	    -13.59919237	     -0.00132905	      2.38922123	      0.12141807	      0.60987324	     -0.04104649	     84.31543478	     -6.83980864	      5.23232338	    100.27265891	      1.75008805	     24.93292501	    -29.28611210	     -7.49999987	     82.50130477	     -5.52008193	      6.96442918	    102.89896265	      1.79592570	     32.08905423	     -8.22478675	     -7.49999987	    -42.04772442	     -0.06495449	     -1.01078587	     50.12840272	    -20.25834362	     18.42641896	    108.88666640	    100.18761556	     47.54034248	    -14.72169726	      6.28334009	    121.25000704	     79.99569743
      2.07500000	    -14.40420574	      0.14475705	      2.32403026	      0.11610918	      0.59893405	     -0.03504899	     86.00650642	     -6.89103258	      5.46347469	    101.18389006	      1.76599203	     25.81413676	    -28.64815412	     -7.49999987	     84.05829108	     -5.60960989	      6.87555321	    103.92219733	      1.81378451	     32.92435144	     -7.39625878	     -7.49999987	    -41.74900325	     -0.29786328	     -0.90311623	     50.57040134	    -20.47681239	     18.77522557	    109.08649812	     98.42347829	     47.78097861	    -14.57432367	      6.62241077	    121.69042065	     79.35978923
